<svg width="33" height="33" viewBox="0 0 33 33" fill="none" xmlns="http://www.w3.org/2000/svg">
<path d="M7.80957 2.75L9.84253 10.0977V13.6211H11.6042V10.0977L13.6641 2.75H11.8889L11.1504 6.09351C10.9428 7.06976 10.8107 7.76362 10.7502 8.17749H10.6965C10.6099 7.59862 10.4779 6.89958 10.2964 6.08008L9.58472 2.75H7.80957ZM15.7185 5.52417C15.1218 5.52417 14.6408 5.64079 14.2737 5.87866C13.9066 6.11516 13.6359 6.49359 13.4626 7.01196C13.2908 7.53034 13.2048 8.21653 13.2048 9.07178V10.2266C13.2048 11.0722 13.2792 11.7494 13.4304 12.2595C13.5817 12.7696 13.8369 13.1455 14.1958 13.3875C14.5547 13.6295 15.0485 13.75 15.6782 13.75C16.2915 13.75 16.779 13.6307 17.1365 13.3928C17.494 13.1549 17.7531 12.7818 17.9126 12.2676C18.0721 11.7533 18.1516 11.0736 18.1516 10.2266V9.07178C18.1516 8.2179 18.0709 7.53427 17.9072 7.02002C17.7436 6.50714 17.4832 6.12872 17.1284 5.88672C16.7737 5.64472 16.3056 5.52417 15.7185 5.52417ZM19.0835 5.67993V11.6123C19.0835 12.3466 19.2065 12.8866 19.4568 13.2317C19.707 13.5768 20.0957 13.75 20.6223 13.75C21.3813 13.75 21.9535 13.3832 22.333 12.6489H22.3706L22.5264 13.6211H23.9255V5.67993H22.1396V11.9883C22.0709 12.1354 21.9658 12.256 21.8228 12.3508C21.6798 12.4471 21.5323 12.4932 21.377 12.4932C21.1955 12.4932 21.0659 12.4188 20.9875 12.2676C20.9092 12.1163 20.8694 11.8623 20.8694 11.5076V5.67993H19.0835ZM15.6782 6.75415C15.9285 6.75415 16.1056 6.88493 16.2046 7.14893C16.3036 7.41155 16.3523 7.82977 16.3523 8.40039V10.8738C16.3523 11.4609 16.3036 11.8855 16.2046 12.144C16.1056 12.4025 15.9298 12.5321 15.6809 12.5334C15.4307 12.5334 15.2575 12.4025 15.1626 12.144C15.0663 11.8855 15.0203 11.4609 15.0203 10.8738V8.40039C15.0203 7.83114 15.069 7.41293 15.168 7.14893C15.267 6.8863 15.4362 6.75415 15.6782 6.75415ZM6.875 15.125C5.3625 15.125 4.125 16.3625 4.125 17.875V27.5C4.125 29.0125 5.3625 30.25 6.875 30.25H26.125C27.6375 30.25 28.875 29.0125 28.875 27.5V17.875C28.875 16.3625 27.6375 15.125 26.125 15.125H6.875ZM16.5671 17.875H18.02V21.4065H18.0308C18.1614 21.1507 18.3487 20.9456 18.5894 20.7888C18.83 20.6321 19.0904 20.5552 19.3682 20.5552C19.7257 20.5552 20.0052 20.6501 20.2087 20.8398C20.4122 21.0296 20.5611 21.3362 20.6519 21.7583C20.7426 22.1818 20.7861 22.7693 20.7861 23.52V24.5808H20.7888C20.7888 25.5804 20.6669 26.3127 20.4263 26.783C20.1856 27.2532 19.8112 27.4893 19.301 27.4893C19.0164 27.4893 18.7587 27.4238 18.5249 27.2932C18.2912 27.1626 18.1154 26.983 17.9985 26.7561H17.9663L17.8132 27.3899H16.5671V17.875ZM7.5437 18.2134H12.0151V19.4299H10.5166V27.3899H9.04224V19.4299H7.5437V18.2134ZM23.5093 20.5579C24.0263 20.5579 24.4239 20.6528 24.7017 20.8425C24.978 21.0323 25.173 21.3286 25.2871 21.7288C25.3999 22.1303 25.4563 22.6844 25.4563 23.3911V24.5405H22.9319V24.8816C22.9319 25.312 22.9434 25.6339 22.9695 25.8484C22.9956 26.0629 23.0482 26.2207 23.1279 26.3184C23.2077 26.4174 23.3308 26.4661 23.4985 26.4661C23.724 26.4661 23.8793 26.3775 23.9631 26.2029C24.047 26.0283 24.0932 25.7385 24.1001 25.3301L25.4026 25.4053C25.4095 25.463 25.4133 25.5452 25.4133 25.647C25.4133 26.2671 25.2427 26.7302 24.9031 27.0354C24.5635 27.342 24.0864 27.4946 23.4663 27.4946C22.7224 27.4946 22.2004 27.2598 21.9006 26.7937C21.6009 26.3276 21.4521 25.6068 21.4521 24.6292V23.4583C21.4521 22.4518 21.6074 21.7168 21.9167 21.2534C22.2261 20.79 22.7585 20.5579 23.5093 20.5579ZM11.564 20.6868H13.0759V25.6094C13.0759 25.9077 13.1093 26.122 13.1753 26.2485C13.2413 26.3764 13.3489 26.4392 13.5029 26.4392C13.6336 26.4392 13.762 26.3995 13.8816 26.3184C14.0026 26.2386 14.0883 26.136 14.1475 26.0122V20.6868H15.6594V27.3899H15.6567H14.4751L14.3462 26.5681H14.3113C13.9895 27.1896 13.5086 27.5 12.8665 27.5C12.421 27.5 12.0953 27.3538 11.8835 27.0623C11.6718 26.7708 11.564 26.3141 11.564 25.6953V20.6868ZM23.4771 21.5784C23.3162 21.5784 23.1969 21.6272 23.1199 21.7207C23.0429 21.8156 22.9915 21.9708 22.9668 22.1853C22.9407 22.3998 22.9292 22.7256 22.9292 23.1628V23.6436H24.033V23.1628C24.033 22.7325 24.0189 22.4081 23.99 22.1853C23.9625 21.9626 23.9085 21.8061 23.8315 21.7153C23.7545 21.6246 23.6379 21.5784 23.4771 21.5784ZM18.6887 21.6267C18.543 21.6267 18.4096 21.6844 18.2859 21.8013C18.1621 21.9181 18.0736 22.0683 18.0227 22.2498V26.0552C18.0887 26.1721 18.1746 26.2592 18.2805 26.3184C18.3864 26.3761 18.4991 26.407 18.6243 26.407C18.7851 26.407 18.9107 26.3493 19.0056 26.2324C19.1005 26.1155 19.1698 25.9193 19.2097 25.6416C19.2496 25.3652 19.2688 24.9803 19.2688 24.4922V23.6301C19.2688 23.1049 19.2535 22.7009 19.2205 22.4163C19.1875 22.1316 19.1284 21.9263 19.0459 21.8066C18.962 21.687 18.8427 21.6267 18.6887 21.6267Z" fill="white"/>
</svg>
